<?xml version="1.0" encoding="UTF-8" standalone="no"?>
<!-- Created with Inkscape (http://www.inkscape.org/) -->

<svg
   xmlns:dc="http://purl.org/dc/elements/1.1/"
   xmlns:cc="http://creativecommons.org/ns#"
   xmlns:rdf="http://www.w3.org/1999/02/22-rdf-syntax-ns#"
   xmlns:svg="http://www.w3.org/2000/svg"
   xmlns="http://www.w3.org/2000/svg"
   xmlns:sodipodi="http://sodipodi.sourceforge.net/DTD/sodipodi-0.dtd"
   xmlns:inkscape="http://www.inkscape.org/namespaces/inkscape"
   width="256"
   height="256"
   viewBox="0 0 256.00001 256.00001"
   id="svg2"
   version="1.1"
   inkscape:version="0.92.4 (5da689c313, 2019-01-14)"
   sodipodi:docname="CancelIcon.svg"
   inkscape:export-filename="C:\Users\aallard\Documents\GitHub\FileConverter\Resources\CancelIcon.png"
   inkscape:export-xdpi="90"
   inkscape:export-ydpi="90">
  <defs
     id="defs4" />
  <sodipodi:namedview
     id="base"
     pagecolor="#ffffff"
     bordercolor="#666666"
     borderopacity="1.0"
     inkscape:pageopacity="0.0"
     inkscape:pageshadow="2"
     inkscape:zoom="2"
     inkscape:cx="102.11763"
     inkscape:cy="151.52912"
     inkscape:document-units="px"
     inkscape:current-layer="layer1"
     showgrid="false"
     units="px"
     inkscape:window-width="2854"
     inkscape:window-height="1955"
     inkscape:window-x="133"
     inkscape:window-y="-13"
     inkscape:window-maximized="1" />
  <metadata
     id="metadata7">
    <rdf:RDF>
      <cc:Work
         rdf:about="">
        <dc:format>image/svg+xml</dc:format>
        <dc:type
           rdf:resource="http://purl.org/dc/dcmitype/StillImage" />
        <dc:title></dc:title>
      </cc:Work>
    </rdf:RDF>
  </metadata>
  <g
     inkscape:label="Calque 1"
     inkscape:groupmode="layer"
     id="layer1"
     transform="translate(0,-796.3622)">
    <path
       style="opacity:1;fill:#d32f2f;fill-opacity:0.94117647;stroke:none;stroke-width:5.05208349"
       d="M 128,803.1122 A 121.25,121.25 0 0 0 6.75,924.3622 121.25,121.25 0 0 0 128,1045.6122 121.25,121.25 0 0 0 249.25,924.3622 121.25,121.25 0 0 0 128,803.1122 Z m 0,20.20833 A 101.04167,101.04167 0 0 1 229.04167,924.3622 101.04167,101.04167 0 0 1 211.66526,980.96132 L 57.714866,851.77797 A 101.04167,101.04167 0 0 1 128,823.32053 Z M 44.334737,867.76308 198.28513,996.9464 A 101.04167,101.04167 0 0 1 128,1025.4039 101.04167,101.04167 0 0 1 26.958333,924.3622 101.04167,101.04167 0 0 1 44.334737,867.76308 Z"
       id="path3338"
       inkscape:connector-curvature="0" />
  </g>
</svg>
