<?xml version="1.0" encoding="UTF-8" standalone="no"?>
<!-- Generator: Adobe Illustrator 18.1.1, SVG Export Plug-In . SVG Version: 6.00 Build 0)  -->

<svg
   xmlns:dc="http://purl.org/dc/elements/1.1/"
   xmlns:cc="http://creativecommons.org/ns#"
   xmlns:rdf="http://www.w3.org/1999/02/22-rdf-syntax-ns#"
   xmlns:svg="http://www.w3.org/2000/svg"
   xmlns="http://www.w3.org/2000/svg"
   xmlns:sodipodi="http://sodipodi.sourceforge.net/DTD/sodipodi-0.dtd"
   xmlns:inkscape="http://www.inkscape.org/namespaces/inkscape"
   version="1.1"
   id="Capa_1"
   x="0px"
   y="0px"
   viewBox="0 0 27.964 27.964"
   style="enable-background:new 0 0 27.964 27.964;"
   xml:space="preserve"
   inkscape:version="0.91 r13725"
   sodipodi:docname="ErrorIcon.svg"><metadata
     id="metadata44"><rdf:RDF><cc:Work
         rdf:about=""><dc:format>image/svg+xml</dc:format><dc:type
           rdf:resource="http://purl.org/dc/dcmitype/StillImage" /></cc:Work></rdf:RDF></metadata><defs
     id="defs42" /><sodipodi:namedview
     pagecolor="#ffffff"
     bordercolor="#666666"
     borderopacity="1"
     objecttolerance="10"
     gridtolerance="10"
     guidetolerance="10"
     inkscape:pageopacity="0"
     inkscape:pageshadow="2"
     inkscape:window-width="1920"
     inkscape:window-height="1018"
     id="namedview40"
     showgrid="false"
     inkscape:zoom="33.757688"
     inkscape:cx="12.891981"
     inkscape:cy="17.64304"
     inkscape:window-x="-8"
     inkscape:window-y="-8"
     inkscape:window-maximized="1"
     inkscape:current-layer="Capa_1" /><g
     id="g3"
     style="fill:#d32f2f;fill-opacity:1;stroke:#d32f2f;stroke-opacity:1"
     transform="matrix(0.96727092,0,0,0.96727092,0.4279787,0.48722445)"><g
       id="c127_X"
       style="fill:#d32f2f;fill-opacity:1;stroke:#d32f2f;stroke-opacity:1"><path
         style="fill:#d32f2f;fill-opacity:1;stroke:#d32f2f;stroke-opacity:1"
         d="M 13.981,0 C 6.261,0 0,6.259 0,13.979 c 0,7.724 6.261,13.984 13.981,13.984 7.725,0 13.983,-6.261 13.983,-13.984 C 27.965,6.259 21.706,0 13.981,0 Z m 0,26.531 c -6.93,0 -12.55,-5.62 -12.55,-12.553 0,-6.93 5.62,-12.548 12.55,-12.548 6.931,0 12.553,5.618 12.553,12.548 0,6.933 -5.622,12.553 -12.553,12.553 z"
         id="path6"
         inkscape:connector-curvature="0" /><path
         style="fill:#d32f2f;fill-opacity:1;stroke:#d32f2f;stroke-opacity:1"
         d="M 19.994,10.197 17.767,7.97 c 0,0 -3.553,3.783 -3.785,3.783 -0.231,0 -3.785,-3.783 -3.785,-3.783 l -2.228,2.228 c 0,0 3.785,3.472 3.785,3.787 0,0.312 -3.785,3.782 -3.785,3.782 l 2.228,2.226 c 0,0 3.525,-3.784 3.785,-3.784 0.262,0 3.785,3.784 3.785,3.784 l 2.228,-2.226 c 0,0 -3.786,-3.528 -3.786,-3.782 -0.001,-0.263 3.785,-3.788 3.785,-3.788 z"
         id="path8"
         inkscape:connector-curvature="0" /></g></g><g
     id="g10"
     style="fill:#d32f2f;fill-opacity:1;stroke:#d32f2f;stroke-opacity:1"
     transform="matrix(0.96727092,0,0,0.96727092,0.4279787,0.48722445)" /><g
     id="g12"
     style="fill:#d32f2f;fill-opacity:1;stroke:#d32f2f;stroke-opacity:1"
     transform="matrix(0.96727092,0,0,0.96727092,0.4279787,0.48722445)" /><g
     id="g14"
     style="fill:#d32f2f;fill-opacity:1;stroke:#d32f2f;stroke-opacity:1"
     transform="matrix(0.96727092,0,0,0.96727092,0.4279787,0.48722445)" /><g
     id="g16"
     style="fill:#d32f2f;fill-opacity:1;stroke:#d32f2f;stroke-opacity:1"
     transform="matrix(0.96727092,0,0,0.96727092,0.4279787,0.48722445)" /><g
     id="g18"
     style="fill:#d32f2f;fill-opacity:1;stroke:#d32f2f;stroke-opacity:1"
     transform="matrix(0.96727092,0,0,0.96727092,0.4279787,0.48722445)" /><g
     id="g20"
     style="fill:#d32f2f;fill-opacity:1;stroke:#d32f2f;stroke-opacity:1"
     transform="matrix(0.96727092,0,0,0.96727092,0.4279787,0.48722445)" /><g
     id="g22"
     style="fill:#d32f2f;fill-opacity:1;stroke:#d32f2f;stroke-opacity:1"
     transform="matrix(0.96727092,0,0,0.96727092,0.4279787,0.48722445)" /><g
     id="g24"
     style="fill:#d32f2f;fill-opacity:1;stroke:#d32f2f;stroke-opacity:1"
     transform="matrix(0.96727092,0,0,0.96727092,0.4279787,0.48722445)" /><g
     id="g26"
     style="fill:#d32f2f;fill-opacity:1;stroke:#d32f2f;stroke-opacity:1"
     transform="matrix(0.96727092,0,0,0.96727092,0.4279787,0.48722445)" /><g
     id="g28"
     style="fill:#d32f2f;fill-opacity:1;stroke:#d32f2f;stroke-opacity:1"
     transform="matrix(0.96727092,0,0,0.96727092,0.4279787,0.48722445)" /><g
     id="g30"
     style="fill:#d32f2f;fill-opacity:1;stroke:#d32f2f;stroke-opacity:1"
     transform="matrix(0.96727092,0,0,0.96727092,0.4279787,0.48722445)" /><g
     id="g32"
     style="fill:#d32f2f;fill-opacity:1;stroke:#d32f2f;stroke-opacity:1"
     transform="matrix(0.96727092,0,0,0.96727092,0.4279787,0.48722445)" /><g
     id="g34"
     style="fill:#d32f2f;fill-opacity:1;stroke:#d32f2f;stroke-opacity:1"
     transform="matrix(0.96727092,0,0,0.96727092,0.4279787,0.48722445)" /><g
     id="g36"
     style="fill:#d32f2f;fill-opacity:1;stroke:#d32f2f;stroke-opacity:1"
     transform="matrix(0.96727092,0,0,0.96727092,0.4279787,0.48722445)" /><g
     id="g38"
     style="fill:#d32f2f;fill-opacity:1;stroke:#d32f2f;stroke-opacity:1"
     transform="matrix(0.96727092,0,0,0.96727092,0.4279787,0.48722445)" /></svg>