<?xml version="1.0" encoding="UTF-8" standalone="no"?>
<!-- Generator: Adobe Illustrator 18.1.1, SVG Export Plug-In . SVG Version: 6.00 Build 0)  -->

<svg
   xmlns:dc="http://purl.org/dc/elements/1.1/"
   xmlns:cc="http://creativecommons.org/ns#"
   xmlns:rdf="http://www.w3.org/1999/02/22-rdf-syntax-ns#"
   xmlns:svg="http://www.w3.org/2000/svg"
   xmlns="http://www.w3.org/2000/svg"
   xmlns:sodipodi="http://sodipodi.sourceforge.net/DTD/sodipodi-0.dtd"
   xmlns:inkscape="http://www.inkscape.org/namespaces/inkscape"
   version="1.1"
   id="Capa_1"
   x="0px"
   y="0px"
   viewBox="0 0 29.535 29.535"
   style="enable-background:new 0 0 29.535 29.535;"
   xml:space="preserve"
   inkscape:version="0.91 r13725"
   sodipodi:docname="WarningIcon.svg"><metadata
     id="metadata45"><rdf:RDF><cc:Work
         rdf:about=""><dc:format>image/svg+xml</dc:format><dc:type
           rdf:resource="http://purl.org/dc/dcmitype/StillImage" /></cc:Work></rdf:RDF></metadata><defs
     id="defs43" /><sodipodi:namedview
     pagecolor="#ffffff"
     bordercolor="#666666"
     borderopacity="1"
     objecttolerance="10"
     gridtolerance="10"
     guidetolerance="10"
     inkscape:pageopacity="0"
     inkscape:pageshadow="2"
     inkscape:window-width="1920"
     inkscape:window-height="1018"
     id="namedview41"
     showgrid="false"
     inkscape:zoom="7.9905198"
     inkscape:cx="-4.6304873"
     inkscape:cy="14.7675"
     inkscape:window-x="-8"
     inkscape:window-y="-8"
     inkscape:window-maximized="1"
     inkscape:current-layer="Capa_1" /><g
     id="g3"
     style="fill:#ffa000;fill-opacity:1"><path
       style="fill:#ffa000;fill-opacity:1"
       d="M14.768,0C6.609,0,0,6.609,0,14.768c0,8.155,6.609,14.767,14.768,14.767s14.766-6.612,14.766-14.767   C29.534,6.609,22.927,0,14.768,0z M14.768,27.126c-6.826,0-12.359-5.532-12.359-12.359c0-6.828,5.533-12.362,12.359-12.362   S27.128,7.94,27.128,14.768C27.128,21.594,21.594,27.126,14.768,27.126z"
       id="path5" /><polygon
       style="fill:#ffa000;fill-opacity:1"
       points="16.338,17.962 16.938,5.601 12.625,5.601 13.227,17.962  "
       id="polygon7" /><path
       style="fill:#ffa000;fill-opacity:1"
       d="M14.781,19.323c-1.445,0-2.455,1.011-2.455,2.485c0,1.418,0.982,2.482,2.398,2.482h0.057   c1.473,0,2.428-1.064,2.428-2.482C17.182,20.334,16.227,19.323,14.781,19.323z"
       id="path9" /></g><g
     id="g11"
     style="fill:#ffa000;fill-opacity:1" /><g
     id="g13"
     style="fill:#ffa000;fill-opacity:1" /><g
     id="g15"
     style="fill:#ffa000;fill-opacity:1" /><g
     id="g17"
     style="fill:#ffa000;fill-opacity:1" /><g
     id="g19"
     style="fill:#ffa000;fill-opacity:1" /><g
     id="g21"
     style="fill:#ffa000;fill-opacity:1" /><g
     id="g23"
     style="fill:#ffa000;fill-opacity:1" /><g
     id="g25"
     style="fill:#ffa000;fill-opacity:1" /><g
     id="g27"
     style="fill:#ffa000;fill-opacity:1" /><g
     id="g29"
     style="fill:#ffa000;fill-opacity:1" /><g
     id="g31"
     style="fill:#ffa000;fill-opacity:1" /><g
     id="g33"
     style="fill:#ffa000;fill-opacity:1" /><g
     id="g35"
     style="fill:#ffa000;fill-opacity:1" /><g
     id="g37"
     style="fill:#ffa000;fill-opacity:1" /><g
     id="g39"
     style="fill:#ffa000;fill-opacity:1" /></svg>