<?xml version="1.0" encoding="UTF-8" standalone="no"?>
<!DOCTYPE svg PUBLIC "-//W3C//DTD SVG 1.1//EN" "http://www.w3.org/Graphics/SVG/1.1/DTD/svg11.dtd">
<svg width="100%" height="100%" viewBox="0 0 32 32" version="1.1" xmlns="http://www.w3.org/2000/svg" xmlns:xlink="http://www.w3.org/1999/xlink" xml:space="preserve" xmlns:serif="http://www.serif.com/" style="fill-rule:evenodd;clip-rule:evenodd;stroke-linejoin:round;stroke-miterlimit:2;">
    <g transform="matrix(1,0,0,1,1,1)">
        <g id="g3">
            <g id="path5" transform="matrix(1.0582,0,0,1.0582,-0.626492,-0.627021)">
                <path d="M14.768,0C6.609,0 0,6.609 0,14.768C0,22.923 6.609,29.535 14.768,29.535C22.927,29.535 29.534,22.923 29.534,14.768C29.534,6.609 22.927,0 14.768,0ZM14.768,27.126C7.942,27.126 2.409,21.594 2.409,14.767C2.409,7.939 7.942,2.405 14.768,2.405C21.594,2.405 27.128,7.94 27.128,14.768C27.128,21.594 21.594,27.126 14.768,27.126Z" style="fill:rgb(255,185,68);fill-rule:nonzero;"/>
            </g>
            <g id="polygon7" transform="matrix(1.0582,0,0,1.0582,-0.626492,-0.627021)">
                <path d="M16.338,17.962L16.938,5.601L12.625,5.601L13.227,17.962L16.338,17.962Z" style="fill:rgb(255,185,68);fill-rule:nonzero;"/>
            </g>
            <g id="path9" transform="matrix(1.0582,0,0,1.0582,-0.626492,-0.627021)">
                <path d="M14.781,19.323C13.336,19.323 12.326,20.334 12.326,21.808C12.326,23.226 13.308,24.29 14.724,24.29L14.781,24.29C16.254,24.29 17.209,23.226 17.209,21.808C17.182,20.334 16.227,19.323 14.781,19.323Z" style="fill:rgb(255,185,68);fill-rule:nonzero;"/>
            </g>
        </g>
    </g>
</svg>
